<?xml version="1.0" encoding="utf-8" ?>
<svg xmlns="http://www.w3.org/2000/svg" xmlns:xlink="http://www.w3.org/1999/xlink" width="500" height="500">
<path fill="#3742E8" d="M365.739 229.217C375.754 234.603 385.073 241.422 394.673 247.52C397.732 249.464 400.871 251.302 403.9 253.287C406.132 254.75 408.26 256.348 410.529 257.76C417.195 261.907 424.048 265.87 430.363 270.545C431.081 271.076 431.702 271.512 431.912 272.417C432.614 275.456 428.836 282.08 426.939 284.452C423.526 288.719 419.683 291.702 414.318 292.984C411.349 291.807 408.534 289.86 405.808 288.205C400.012 284.687 394.356 281.048 388.678 277.342L352.335 253.814C348.657 251.416 342.958 248.81 339.953 245.877L341.515 246.296C345.107 243.872 349.005 241.95 352.784 239.843C357.535 237.193 362.202 234.41 367.017 231.871C367.335 231.327 367.484 231.303 367.392 230.654C366.819 230.372 366.292 230.067 365.751 229.731L365.739 229.217Z"/>
<path fill="#3B89D8" d="M187.64 195.065L187.953 195.362C190.515 194.337 196.218 190.034 199.083 188.272L228.547 169.741C235.603 165.209 242.602 160.186 250.185 156.592C256.932 159.234 267.488 166.922 273.927 171.057C282.724 176.707 291.75 182.011 300.572 187.639C303.496 189.504 310.125 194.448 313.115 195.416C315.433 196.753 317.607 198.421 319.877 199.857C325.396 203.348 330.949 206.771 336.435 210.315C339.366 212.208 343.493 215.453 346.714 216.553C350.045 220.547 360.99 225.67 365.739 229.217L365.751 229.731C366.292 230.067 366.819 230.372 367.392 230.654C367.484 231.303 367.335 231.327 367.017 231.871C362.202 234.41 357.535 237.193 352.784 239.843C349.005 241.95 345.107 243.872 341.515 246.296L339.953 245.877C333.207 241.228 326.025 237.035 319.053 232.712C313.821 229.467 308.688 226.037 303.488 222.736L262.628 197.029C258.436 194.439 254.374 191.674 250.135 189.149C238.652 195.872 227.601 203.4 216.312 210.447L134.18 262.455C127.218 266.928 120.057 271.135 113.157 275.687C107.26 279.576 101.361 283.406 95.3734 287.157C92.2973 289.083 89.1695 291.334 85.8168 292.735C81.9081 291.526 78.7142 289.073 75.8541 286.188C73.0338 283.343 68.1964 277.097 68.3757 272.899C68.4152 271.974 68.6924 271.437 69.384 270.808C71.8345 268.581 75.1773 266.877 77.9878 265.126L93.8432 255.194L124.235 235.687C127.142 233.827 129.94 231.809 132.889 230.011Q139.533 225.937 146.107 221.752C148.62 220.168 151.508 218.667 153.708 216.666L153.95 216.442C154.177 216.371 154.256 216.353 154.497 216.238C159.066 214.051 164.158 210.306 168.535 207.561L179.727 200.498C182.107 199.011 184.629 197.596 186.902 195.958C187.305 195.667 187.455 195.521 187.64 195.065Z"/>
<defs>
<linearGradient id="gradient_0" gradientUnits="userSpaceOnUse" x1="329.50162" y1="311.0246" x2="116.81883" y2="320.23367">
<stop offset="0" stop-color="#3D74DB"/>
<stop offset="1" stop-color="#38ABD3"/>
</linearGradient>
</defs>
<path fill="url(#gradient_0)" d="M250.165 204.877C255.064 206.742 259.221 210.014 263.598 212.811L277.412 221.451Q297.134 233.525 316.579 246.042C320.148 248.378 324.038 250.345 327.439 252.905C327.175 253.581 326.958 253.987 326.351 254.408C322.572 257.023 317.922 259.033 313.841 261.201Q299.861 268.46 286.097 276.119C281.357 278.709 276.42 280.981 271.967 284.07C266.435 278.316 259.729 274.874 251.651 274.694C243.203 274.505 235.785 276.742 229.584 282.673C223.418 288.569 220.043 296.47 219.864 305.013C219.76 309.948 221.017 314.699 223.158 319.116C221.502 320.237 211.553 333.472 209.492 336.006Q178.807 373.365 148.824 411.289C145.731 415.148 142.535 418.918 139.377 422.723C137.491 424.996 135.376 427.32 133.82 429.831C129.03 427.177 125.434 421.86 123.213 417.005C121.652 413.592 120.476 409.865 120.163 406.113C119.648 399.959 119.923 393.616 119.924 387.439L119.932 356.048L119.939 310.683C119.952 303.514 119.697 296.303 120.007 289.14C120.057 287.989 120.261 287.063 120.664 285.986C126.362 281.77 132.671 278.275 138.691 274.531L171.201 254.148Q197.977 236.868 225.129 220.185C229.744 217.29 234.302 214.289 238.886 211.344C242.5 209.022 246.162 206.471 250.165 204.877Z"/>
<path fill="#FEFEFE" d="M153.95 216.442C153.151 207.455 153.875 198.181 153.771 189.145C153.638 177.609 153.173 165.803 154.309 154.313C154.599 151.383 155.273 148.444 155.849 145.558C159.294 128.296 166.565 112.463 177.872 98.9243C193.284 80.47 216.664 67.4433 240.779 65.3242C262.388 63.4253 283.716 68.3565 301.829 80.4392C304.097 81.9524 306.586 83.4365 308.662 85.1947C331.947 104.911 344.365 129.519 346.608 159.981C347.099 166.641 346.869 173.516 346.86 180.197L346.912 210.032C346.918 212.198 346.657 214.401 346.714 216.553C343.493 215.453 339.366 212.208 336.435 210.315C330.949 206.771 325.396 203.348 319.877 199.857C317.607 198.421 315.433 196.753 313.115 195.416C310.125 194.448 303.496 189.504 300.572 187.639C291.75 182.011 282.724 176.707 273.927 171.057C267.488 166.922 256.932 159.234 250.185 156.592C242.602 160.186 235.603 165.209 228.547 169.741L199.083 188.272C196.218 190.034 190.515 194.337 187.953 195.362L187.64 195.065C187.455 195.521 187.305 195.667 186.902 195.958C184.629 197.596 182.107 199.011 179.727 200.498L168.535 207.561C164.158 210.306 159.066 214.051 154.497 216.238C154.256 216.353 154.177 216.371 153.95 216.442ZM187.64 195.065L187.953 195.362C190.515 194.337 196.218 190.034 199.083 188.272L228.547 169.741C235.603 165.209 242.602 160.186 250.185 156.592C256.932 159.234 267.488 166.922 273.927 171.057C282.724 176.707 291.75 182.011 300.572 187.639C303.496 189.504 310.125 194.448 313.115 195.416C312.324 190.147 312.872 184.493 312.887 179.173C312.941 159.817 311.8 141.275 299.822 125.087C291.247 113.498 279.686 104.116 265.501 100.465C262.68 99.7386 259.67 99.3559 256.787 98.9315C241.888 96.7386 226.316 101.711 214.409 110.592C201.256 120.404 192.139 135.753 189.172 151.852C188.031 158.047 187.8 164.635 187.798 170.916C187.797 175.108 187.72 179.312 187.775 183.503C187.825 187.245 188.257 191.004 187.694 194.727L187.64 195.065Z"/>
<defs>
<linearGradient id="gradient_1" gradientUnits="userSpaceOnUse" x1="140.18866" y1="338.99597" x2="382.6915" y2="352.97604">
<stop offset="0" stop-color="#456CD5"/>
<stop offset="1" stop-color="#3941E8"/>
</linearGradient>
</defs>
<path fill="url(#gradient_1)" d="M327.439 252.905C336.901 258.57 346.097 264.757 355.448 270.609C360.265 273.624 365.092 276.583 369.875 279.655C373.466 281.962 376.996 283.852 379.943 287.027C380.904 293.649 380.282 303.13 380.265 310.096L380.251 352.088L380.286 387.431C380.315 394.265 380.861 401.481 379.976 408.255C379.284 413.548 376.905 419.125 373.72 423.394C368.953 429.787 361.158 434.529 353.251 435.663C341.051 437.411 327.28 436.541 314.875 436.473L257.904 436.372L188.424 436.315Q176.529 436.39 164.634 436.326C160.006 436.294 155.285 436.397 150.677 435.914C144.529 435.27 138.931 433.461 133.873 429.873C133.855 429.86 133.838 429.845 133.82 429.831C135.376 427.32 137.491 424.996 139.377 422.723C142.535 418.918 145.731 415.148 148.824 411.289Q178.807 373.365 209.492 336.006C211.553 333.472 221.502 320.237 223.158 319.116C221.017 314.699 219.76 309.948 219.864 305.013C220.043 296.47 223.418 288.569 229.584 282.673C235.785 276.742 243.203 274.505 251.651 274.694C259.729 274.874 266.435 278.316 271.967 284.07C276.42 280.981 281.357 278.709 286.097 276.119Q299.861 268.46 313.841 261.201C317.922 259.033 322.572 257.023 326.351 254.408C326.958 253.987 327.175 253.581 327.439 252.905ZM223.158 319.116C224.314 321.568 226.099 323.814 228.002 325.724C229.231 326.958 235.526 331.591 235.806 332.409C236.466 334.342 229.879 368.916 229.131 373.401C228.43 377.609 226.637 383.882 227.782 388.036C228.037 388.961 228.479 389.904 229.357 390.382C230.325 390.909 231.47 391.091 232.555 391.182C236.642 391.524 240.936 391.152 245.046 391.138C251.56 391.116 265.046 391.995 270.701 390.371L272.516 387.791L272.543 387.458C273.062 381.661 271.371 375.39 270.389 369.667C268.808 360.452 267.004 351.276 265.486 342.053C265.016 339.196 264.015 336.17 264.001 333.279C263.999 332.698 264.094 332.189 264.423 331.698C265.478 330.127 270.363 327.2 272.128 325.504C277.364 320.471 280.183 312.754 280.256 305.571C280.335 297.713 277.491 289.711 271.967 284.07C266.435 278.316 259.729 274.874 251.651 274.694C243.203 274.505 235.785 276.742 229.584 282.673C223.418 288.569 220.043 296.47 219.864 305.013C219.76 309.948 221.017 314.699 223.158 319.116Z"/>
</svg>
